<svg width="16" height="17" viewBox="0 0 16 17" fill="none" xmlns="http://www.w3.org/2000/svg">
<path fill-rule="evenodd" clip-rule="evenodd" d="M8.47617 2.79389L10.0202 5.89989C10.0975 6.05655 10.2468 6.16589 10.4202 6.19122L13.8768 6.69055C14.0168 6.70922 14.1428 6.78255 14.2288 6.89455C14.3902 7.10455 14.3655 7.40189 14.1722 7.58255L11.6668 10.0052C11.5395 10.1252 11.4828 10.3012 11.5162 10.4726L12.1162 13.8912C12.1582 14.1746 11.9648 14.4399 11.6815 14.4859C11.5642 14.5039 11.4442 14.4852 11.3375 14.4326L8.25883 12.8186C8.10417 12.7346 7.91883 12.7346 7.76417 12.8186L4.66283 14.4412C4.4035 14.5732 4.08617 14.4752 3.94483 14.2212C3.89083 14.1186 3.87217 14.0019 3.89083 13.8879L4.49083 10.4692C4.52083 10.2986 4.46417 10.1232 4.34017 10.0026L1.8215 7.58055C1.61617 7.37655 1.61483 7.04455 1.8195 6.83922C1.82017 6.83855 1.82083 6.83722 1.8215 6.83655C1.90617 6.75989 2.01017 6.70855 2.12283 6.68855L5.58017 6.18922C5.75283 6.16189 5.9015 6.05389 5.98017 5.89722L7.52283 2.79389C7.58483 2.66789 7.69483 2.57122 7.82817 2.52722C7.96217 2.48255 8.10883 2.49322 8.23483 2.55655C8.33817 2.60789 8.42283 2.69122 8.47617 2.79389Z" fill="#F6C65C"/>
</svg>
