<svg width="100" height="25" viewBox="0 0 100 25" fill="none" xmlns="http://www.w3.org/2000/svg">
<path d="M13.12 24.384C11.3493 24.384 9.70667 24.096 8.192 23.52C6.69867 22.9227 5.38667 22.0907 4.256 21.024C3.14667 19.9573 2.28267 18.7093 1.664 17.28C1.04533 15.8507 0.736 14.2933 0.736 12.608C0.736 10.9013 1.056 9.33333 1.696 7.904C2.35733 6.47467 3.264 5.23733 4.416 4.192C5.58933 3.12533 6.944 2.304 8.48 1.728C10.016 1.13067 11.6587 0.831999 13.408 0.831999C15.52 0.831999 17.408 1.19467 19.072 1.92C20.7573 2.64533 22.1227 3.62667 23.168 4.864L18.848 9.184C18.0587 8.26667 17.2373 7.584 16.384 7.136C15.5307 6.688 14.5067 6.464 13.312 6.464C12.1813 6.464 11.1573 6.72 10.24 7.232C9.32267 7.72267 8.58667 8.42667 8.032 9.344C7.49867 10.2613 7.232 11.3387 7.232 12.576C7.232 13.8133 7.47733 14.9013 7.968 15.84C8.48 16.7573 9.184 17.472 10.08 17.984C10.976 18.496 12.0213 18.752 13.216 18.752C14.368 18.752 15.3387 18.528 16.128 18.08C16.9173 17.632 17.5147 16.992 17.92 16.16C18.3467 15.328 18.56 14.3467 18.56 13.216L22.944 16L12.352 15.68V10.56H24.992V11.52C24.992 14.2507 24.4907 16.576 23.488 18.496C22.5067 20.416 21.12 21.8773 19.328 22.88C17.5573 23.8827 15.488 24.384 13.12 24.384ZM35.196 24.384C33.3613 24.384 31.7507 24.0427 30.364 23.36C28.9773 22.656 27.8893 21.6853 27.1 20.448C26.332 19.1893 25.948 17.7493 25.948 16.128C25.948 14.528 26.3213 13.1093 27.068 11.872C27.836 10.6347 28.8813 9.664 30.204 8.96C31.5267 8.23467 33.02 7.872 34.684 7.872C36.3267 7.872 37.7773 8.21333 39.036 8.896C40.2947 9.55733 41.276 10.4853 41.98 11.68C42.7053 12.8747 43.068 14.24 43.068 15.776C43.068 16.096 43.0467 16.4373 43.004 16.8C42.9827 17.1413 42.9187 17.5467 42.812 18.016L28.604 18.112V14.272L40.476 14.176L37.564 15.872C37.564 15.0187 37.4573 14.3253 37.244 13.792C37.052 13.2373 36.7533 12.8213 36.348 12.544C35.9427 12.2667 35.4307 12.128 34.812 12.128C34.172 12.128 33.6173 12.288 33.148 12.608C32.6787 12.928 32.316 13.3867 32.06 13.984C31.8253 14.5813 31.708 15.3067 31.708 16.16C31.708 17.0347 31.836 17.7707 32.092 18.368C32.3693 18.944 32.764 19.3813 33.276 19.68C33.788 19.9787 34.428 20.128 35.196 20.128C35.9427 20.128 36.5933 20.0107 37.148 19.776C37.724 19.52 38.2467 19.1253 38.716 18.592L41.852 21.696C41.0627 22.592 40.1133 23.264 39.004 23.712C37.8947 24.16 36.6253 24.384 35.196 24.384ZM46.7403 24V1.792H53.0123V24H46.7403ZM43.3803 13.376V8.256H56.3723V13.376H43.3803ZM63.8158 24V8.256H70.0878V24H63.8158ZM66.9518 6.784C66.0344 6.784 65.2664 6.47467 64.6478 5.856C64.0504 5.216 63.7518 4.43733 63.7518 3.52C63.7518 2.60267 64.0504 1.83467 64.6478 1.216C65.2664 0.575999 66.0344 0.255999 66.9518 0.255999C67.8904 0.255999 68.6584 0.575999 69.2558 1.216C69.8531 1.83467 70.1518 2.60267 70.1518 3.52C70.1518 4.43733 69.8531 5.216 69.2558 5.856C68.6584 6.47467 67.8904 6.784 66.9518 6.784ZM75.1465 24V1.792H81.4185V24H75.1465ZM71.7865 13.376V8.256H84.7785V13.376H71.7865ZM95.71 24.384C94.7073 24.384 93.8753 24.0427 93.214 23.36C92.5527 22.6773 92.222 21.8453 92.222 20.864C92.222 19.8613 92.5527 19.0187 93.214 18.336C93.8753 17.6533 94.7073 17.312 95.71 17.312C96.7127 17.312 97.534 17.6533 98.174 18.336C98.8353 19.0187 99.166 19.8613 99.166 20.864C99.166 21.8453 98.8353 22.6773 98.174 23.36C97.534 24.0427 96.7127 24.384 95.71 24.384Z" fill="#121212"/>
</svg>
